<svg width="118" height="16" viewBox="0 0 118 16" fill="none" xmlns="http://www.w3.org/2000/svg">
<g clip-path="url(#clip0_1628_22154)">
<path fill-rule="evenodd" clip-rule="evenodd" d="M10.8112 10.9065C10.1112 11.4065 9.31118 11.7065 8.01118 11.6065C5.71118 11.5065 4.41118 9.80655 4.41118 7.80655C4.41118 5.80655 5.81118 4.00655 8.01118 4.00655C9.31118 4.00655 10.0112 4.20655 10.7112 4.70655L13.0112 1.70655C11.4928 0.546751 9.62085 -0.0536966 7.71118 0.00654589C6.67986 -0.0368604 5.65086 0.135978 4.69032 0.513955C3.72978 0.891931 2.85894 1.46668 2.13376 2.20128C1.40859 2.93587 0.845117 3.81405 0.479566 4.77939C0.114015 5.74473 -0.045533 6.77587 0.0111765 7.80655C0.0111765 12.2065 3.21118 15.4065 7.71118 15.4065C9.71118 15.4065 11.6112 15.0065 12.9112 13.9065L10.8112 10.9065ZM69.2112 7.70655C69.2112 5.50655 67.3112 3.70655 63.8112 3.70655C62.0112 3.70655 60.7112 4.00655 59.9112 4.30655L60.6112 7.20655C64.5112 6.00655 65.8112 7.30655 65.6112 8.90655C65.6112 8.90655 64.1112 8.10655 62.4112 8.10655C60.0112 8.10655 58.6112 9.80655 58.6112 11.7065C58.6112 14.1065 60.1112 15.3065 62.4112 15.3065C63.0238 15.3183 63.631 15.1892 64.1858 14.9291C64.7407 14.669 65.2283 14.285 65.6112 13.8065V15.0065H69.2112V7.80655V7.70655ZM63.6112 12.7065C62.7112 12.7065 62.3112 12.2065 62.3112 11.4065C62.3112 10.7065 62.9112 10.2065 63.6112 10.2065C64.5112 10.2065 65.0112 10.3065 65.5112 10.5065H65.6112C65.6112 11.5065 65.0112 12.7065 63.6112 12.7065ZM13.3112 9.60655C13.3112 6.20655 15.9112 3.80655 19.3112 3.80655C22.7112 3.80655 25.3112 6.20655 25.3112 9.60655C25.3112 13.0065 22.7112 15.4065 19.3112 15.4065C15.9112 15.4065 13.3112 13.0065 13.3112 9.60655ZM17.1112 9.60655C17.1112 11.1065 18.0112 12.1065 19.3112 12.1065C20.6112 12.1065 21.5112 11.0065 21.5112 9.60655C21.5112 8.20655 20.6112 7.20655 19.3112 7.20655C18.0112 7.20655 17.1112 8.20655 17.1112 9.60655ZM33.3112 3.80655C32.0112 3.80655 30.8112 4.50655 30.0112 5.50655V4.10655H26.5112V15.1065H30.0112V8.70655C30.0112 8.2822 30.1797 7.87523 30.4798 7.57517C30.7799 7.27512 31.1868 7.10655 31.6112 7.10655C32.0355 7.10655 32.4425 7.27512 32.7425 7.57517C33.0426 7.87523 33.2112 8.2822 33.2112 8.70655V15.1065H36.8112V7.30655C36.8112 5.30655 35.5112 3.80655 33.3112 3.80655ZM53.3112 10.4065C53.3112 11.4065 54.0112 12.1065 55.3112 12.1065C55.8112 12.1065 56.3112 11.9065 56.8112 11.7065L57.8112 14.5065C57.1112 14.9065 55.7112 15.5065 54.1112 15.5065C51.4112 15.5065 49.8112 14.1065 49.8112 12.2065V1.20655H53.3112V4.20655H56.7112L56.5112 7.20655H53.3112V10.4065ZM58.3112 14.1065V14.2065V14.1065ZM39.3112 11.8065L38.0112 13.9065C39.5112 14.9065 41.3112 15.5065 43.3112 15.5065C46.3112 15.5065 48.0112 14.0065 48.0112 11.6065C48.0112 9.30655 46.4112 8.60655 43.7112 7.80655C42.7112 7.50655 42.4112 7.20655 42.4112 6.80655C42.4449 6.66033 42.519 6.52654 42.6251 6.42044C42.7312 6.31435 42.865 6.24023 43.0112 6.20655C44.0112 6.00655 45.4112 6.50655 46.6112 7.20655L47.8112 5.10655C46.5112 4.30655 44.8112 3.70655 43.1112 3.70655C40.3112 3.70655 38.4112 5.20655 38.4112 7.70655C38.4112 9.90655 40.1112 10.7065 42.8112 11.4065C43.8112 11.7065 44.0112 12.1065 44.0112 12.3065C44.0112 12.5065 43.8112 12.8065 43.4112 12.9065C41.93 12.9943 40.4592 12.6091 39.2112 11.8065H39.3112Z" fill="#0078D2"/>
<path style="mix-blend-mode:overlay" fill-rule="evenodd" clip-rule="evenodd" d="M10.8112 10.9065C10.1112 11.4065 9.31118 11.7065 8.01118 11.6065C5.71118 11.5065 4.41118 9.80655 4.41118 7.80655C4.41118 5.80655 5.81118 4.00655 8.01118 4.00655C9.31118 4.00655 10.0112 4.20655 10.7112 4.70655L13.0112 1.70655C11.4928 0.546751 9.62085 -0.0536966 7.71118 0.00654589C6.67986 -0.0368604 5.65086 0.135978 4.69032 0.513955C3.72978 0.891931 2.85894 1.46668 2.13376 2.20128C1.40859 2.93587 0.845117 3.81405 0.479566 4.77939C0.114015 5.74473 -0.045533 6.77587 0.0111765 7.80655C0.0111765 12.2065 3.21118 15.4065 7.71118 15.4065C9.71118 15.4065 11.6112 15.0065 12.9112 13.9065L10.8112 10.9065ZM69.2112 7.70655C69.2112 5.50655 67.3112 3.70655 63.8112 3.70655C62.0112 3.70655 60.7112 4.00655 59.9112 4.30655L60.6112 7.20655C64.5112 6.00655 65.8112 7.30655 65.6112 8.90655C65.6112 8.90655 64.1112 8.10655 62.4112 8.10655C60.0112 8.10655 58.6112 9.80655 58.6112 11.7065C58.6112 14.1065 60.1112 15.3065 62.4112 15.3065C63.0238 15.3183 63.631 15.1892 64.1858 14.9291C64.7407 14.669 65.2283 14.285 65.6112 13.8065V15.0065H69.2112V7.80655V7.70655ZM63.6112 12.7065C62.7112 12.7065 62.3112 12.2065 62.3112 11.4065C62.3112 10.7065 62.9112 10.2065 63.6112 10.2065C64.5112 10.2065 65.0112 10.3065 65.5112 10.5065H65.6112C65.6112 11.5065 65.0112 12.7065 63.6112 12.7065ZM13.3112 9.60655C13.3112 6.20655 15.9112 3.80655 19.3112 3.80655C22.7112 3.80655 25.3112 6.20655 25.3112 9.60655C25.3112 13.0065 22.7112 15.4065 19.3112 15.4065C15.9112 15.4065 13.3112 13.0065 13.3112 9.60655ZM17.1112 9.60655C17.1112 11.1065 18.0112 12.1065 19.3112 12.1065C20.6112 12.1065 21.5112 11.0065 21.5112 9.60655C21.5112 8.20655 20.6112 7.20655 19.3112 7.20655C18.0112 7.20655 17.1112 8.20655 17.1112 9.60655ZM33.3112 3.80655C32.0112 3.80655 30.8112 4.50655 30.0112 5.50655V4.10655H26.5112V15.1065H30.0112V8.70655C30.0112 8.2822 30.1797 7.87523 30.4798 7.57517C30.7799 7.27512 31.1868 7.10655 31.6112 7.10655C32.0355 7.10655 32.4425 7.27512 32.7425 7.57517C33.0426 7.87523 33.2112 8.2822 33.2112 8.70655V15.1065H36.8112V7.30655C36.8112 5.30655 35.5112 3.80655 33.3112 3.80655ZM53.3112 10.4065C53.3112 11.4065 54.0112 12.1065 55.3112 12.1065C55.8112 12.1065 56.3112 11.9065 56.8112 11.7065L57.8112 14.5065C57.1112 14.9065 55.7112 15.5065 54.1112 15.5065C51.4112 15.5065 49.8112 14.1065 49.8112 12.2065V1.20655H53.3112V4.20655H56.7112L56.5112 7.20655H53.3112V10.4065ZM58.3112 14.1065V14.2065V14.1065ZM39.3112 11.8065L38.0112 13.9065C39.5112 14.9065 41.3112 15.5065 43.3112 15.5065C46.3112 15.5065 48.0112 14.0065 48.0112 11.6065C48.0112 9.30655 46.4112 8.60655 43.7112 7.80655C42.7112 7.50655 42.4112 7.20655 42.4112 6.80655C42.4449 6.66033 42.519 6.52654 42.6251 6.42044C42.7312 6.31435 42.865 6.24023 43.0112 6.20655C44.0112 6.00655 45.4112 6.50655 46.6112 7.20655L47.8112 5.10655C46.5112 4.30655 44.8112 3.70655 43.1112 3.70655C40.3112 3.70655 38.4112 5.20655 38.4112 7.70655C38.4112 9.90655 40.1112 10.7065 42.8112 11.4065C43.8112 11.7065 44.0112 12.1065 44.0112 12.3065C44.0112 12.5065 43.8112 12.8065 43.4112 12.9065C41.93 12.9943 40.4592 12.6091 39.2112 11.8065H39.3112Z" fill="url(#paint0_linear_1628_22154)"/>
<path d="M80.6781 15.2412H83.0769V2.02664H87.5645V0H76.2112V2.02664H80.6781V15.2412Z" fill="#5C6F7A"/>
<path d="M88.9412 15.2412H91.3194V8.14792C92.0225 6.34876 93.1392 5.70768 94.0698 5.70768C94.5248 5.70768 94.8143 5.76972 95.2072 5.8938L95.6415 3.8258C95.2899 3.66036 94.9177 3.57764 94.3593 3.57764C93.1392 3.57764 91.9398 4.4462 91.1332 5.91448H91.0712L90.8851 3.86716H88.9412V15.2412Z" fill="#5C6F7A"/>
<path d="M101.917 15.51C103.406 15.51 104.708 15.0137 105.763 14.3106L104.936 12.8009C104.109 13.3386 103.24 13.6488 102.227 13.6488C100.262 13.6488 98.8973 12.346 98.7112 10.1746H106.094C106.156 9.88504 106.218 9.43008 106.218 8.95444C106.218 5.74904 104.584 3.57764 101.565 3.57764C98.918 3.57764 96.3743 5.87312 96.3743 9.55416C96.3743 13.3179 98.8353 15.51 101.917 15.51ZM98.6905 8.52016C98.918 6.53488 100.179 5.43884 101.606 5.43884C103.261 5.43884 104.15 6.57624 104.15 8.52016H98.6905Z" fill="#5C6F7A"/>
<path d="M113.61 15.51C115.099 15.51 116.401 15.0137 117.456 14.3106L116.629 12.8009C115.802 13.3386 114.933 13.6488 113.92 13.6488C111.955 13.6488 110.59 12.346 110.404 10.1746H117.787C117.849 9.88504 117.911 9.43008 117.911 8.95444C117.911 5.74904 116.277 3.57764 113.258 3.57764C110.611 3.57764 108.067 5.87312 108.067 9.55416C108.067 13.3179 110.528 15.51 113.61 15.51ZM110.384 8.52016C110.611 6.53488 111.873 5.43884 113.299 5.43884C114.954 5.43884 115.843 6.57624 115.843 8.52016H110.384Z" fill="#5C6F7A"/>
</g>
<defs>
<linearGradient id="paint0_linear_1628_22154" x1="51.5112" y1="-23.7935" x2="14.9112" y2="38.4065" gradientUnits="userSpaceOnUse">
<stop stop-color="white" stop-opacity="0.6"/>
<stop offset="1" stop-color="white" stop-opacity="0"/>
</linearGradient>
<clipPath id="clip0_1628_22154">
<rect width="117.911" height="15.51" fill="white"/>
</clipPath>
</defs>
</svg>
